<mxfile host="app.diagrams.net" modified="2021-07-31T06:40:00.085Z" agent="5.0 (Windows NT 10.0; Win64; x64) AppleWebKit/537.36 (KHTML, like Gecko) Chrome/92.0.4515.107 Safari/537.36" etag="IdhvjwO9mwUPA6qC8UFN" version="14.9.3" type="github">
  <diagram id="UGEYK_PqfZ-aKJjCM66v" name="Page-1">
    <mxGraphModel dx="1209" dy="562" grid="1" gridSize="10" guides="1" tooltips="1" connect="1" arrows="1" fold="1" page="1" pageScale="1" pageWidth="850" pageHeight="1100" math="0" shadow="0">
      <root>
        <mxCell id="0" />
        <mxCell id="1" parent="0" />
        <mxCell id="fIfDDDItFgYyAFIhwEIF-1" value="java&lt;br&gt;.jara&lt;br&gt;some sofwatr" style="rounded=1;whiteSpace=wrap;html=1;" vertex="1" parent="1">
          <mxGeometry x="170" y="220" width="200" height="120" as="geometry" />
        </mxCell>
        <mxCell id="fIfDDDItFgYyAFIhwEIF-2" value="OS" style="rounded=1;whiteSpace=wrap;html=1;" vertex="1" parent="1">
          <mxGeometry x="490" y="260" width="240" height="70" as="geometry" />
        </mxCell>
        <mxCell id="fIfDDDItFgYyAFIhwEIF-3" value="docker&amp;nbsp;" style="rounded=1;whiteSpace=wrap;html=1;" vertex="1" parent="1">
          <mxGeometry x="510" y="200" width="190" height="60" as="geometry" />
        </mxCell>
        <mxCell id="fIfDDDItFgYyAFIhwEIF-4" value="C1" style="rounded=1;whiteSpace=wrap;html=1;" vertex="1" parent="1">
          <mxGeometry x="470" y="100" width="100" height="60" as="geometry" />
        </mxCell>
        <mxCell id="fIfDDDItFgYyAFIhwEIF-5" value="C2" style="rounded=1;whiteSpace=wrap;html=1;" vertex="1" parent="1">
          <mxGeometry x="590" y="100" width="90" height="60" as="geometry" />
        </mxCell>
        <mxCell id="fIfDDDItFgYyAFIhwEIF-6" value="C3" style="rounded=1;whiteSpace=wrap;html=1;" vertex="1" parent="1">
          <mxGeometry x="700" y="100" width="110" height="60" as="geometry" />
        </mxCell>
        <mxCell id="fIfDDDItFgYyAFIhwEIF-7" value="" style="endArrow=none;html=1;" edge="1" parent="1" source="fIfDDDItFgYyAFIhwEIF-3">
          <mxGeometry width="50" height="50" relative="1" as="geometry">
            <mxPoint x="490" y="210" as="sourcePoint" />
            <mxPoint x="540" y="160" as="targetPoint" />
          </mxGeometry>
        </mxCell>
        <mxCell id="fIfDDDItFgYyAFIhwEIF-8" value="" style="endArrow=none;html=1;" edge="1" parent="1">
          <mxGeometry width="50" height="50" relative="1" as="geometry">
            <mxPoint x="630" y="200" as="sourcePoint" />
            <mxPoint x="670" y="160" as="targetPoint" />
          </mxGeometry>
        </mxCell>
        <mxCell id="fIfDDDItFgYyAFIhwEIF-9" value="" style="endArrow=none;html=1;exitX=0.964;exitY=-0.057;exitDx=0;exitDy=0;exitPerimeter=0;" edge="1" parent="1" source="fIfDDDItFgYyAFIhwEIF-3">
          <mxGeometry width="50" height="50" relative="1" as="geometry">
            <mxPoint x="700" y="190" as="sourcePoint" />
            <mxPoint x="760" y="160" as="targetPoint" />
          </mxGeometry>
        </mxCell>
        <mxCell id="fIfDDDItFgYyAFIhwEIF-11" value="" style="rounded=1;whiteSpace=wrap;html=1;" vertex="1" parent="1">
          <mxGeometry x="150" y="390" width="620" height="150" as="geometry" />
        </mxCell>
        <mxCell id="fIfDDDItFgYyAFIhwEIF-12" value="10" style="rounded=1;whiteSpace=wrap;html=1;" vertex="1" parent="1">
          <mxGeometry x="210" y="440" width="120" height="60" as="geometry" />
        </mxCell>
        <mxCell id="fIfDDDItFgYyAFIhwEIF-13" value="10" style="rounded=1;whiteSpace=wrap;html=1;" vertex="1" parent="1">
          <mxGeometry x="400" y="440" width="120" height="60" as="geometry" />
        </mxCell>
        <mxCell id="fIfDDDItFgYyAFIhwEIF-14" value="10" style="rounded=1;whiteSpace=wrap;html=1;" vertex="1" parent="1">
          <mxGeometry x="600" y="440" width="120" height="60" as="geometry" />
        </mxCell>
        <mxCell id="fIfDDDItFgYyAFIhwEIF-15" value="Actor" style="shape=umlActor;verticalLabelPosition=bottom;verticalAlign=top;html=1;outlineConnect=0;" vertex="1" parent="1">
          <mxGeometry x="20" y="450" width="30" height="60" as="geometry" />
        </mxCell>
      </root>
    </mxGraphModel>
  </diagram>
</mxfile>
